<?xml version="1.0" encoding="utf-8"?>
<!-- Generator: Adobe Illustrator 19.0.0, SVG Export Plug-In . SVG Version: 6.00 Build 0)  -->
<svg version="1.1" id="layer" xmlns="http://www.w3.org/2000/svg" xmlns:xlink="http://www.w3.org/1999/xlink" x="0px" y="0px"
	 viewBox="-153 -46 652 652" style="enable-background:new -153 -46 652 652;" xml:space="preserve">
<style type="text/css">
	.st0{fill:url(#SVGID_1_);}
	.st1{fill:#6C1011;}
	.st2{fill:url(#SVGID_2_);}
	.st3{fill:#FFFFFF;}
	.st4{fill:#EEBB31;}
</style>
<radialGradient id="SVGID_1_" cx="125.519" cy="285.48" r="42.5195" gradientTransform="matrix(3.5277 0 0 -3.5277 -424.7564 1281.6133)" gradientUnits="userSpaceOnUse">
	<stop  offset="0" style="stop-color:#F2CB72"/>
	<stop  offset="1" style="stop-color:#EFBC32"/>
</radialGradient>
<path class="st0" d="M-132,124.5h300v300h-300V124.5z"/>
<path class="st1" d="M86,252.5c0,0,17.6,9.1,34.3,1.5C120.2,254,103.1,257.5,86,252.5z M109.3,297.1c0,0,10.6,1.6,11.3-0.2
	C120.7,296.9,119.6,295.7,109.3,297.1L109.3,297.1z M116.2,293.4c0,0,6.4,1.3,6.9-0.1C123,293.3,122.4,292.4,116.2,293.4z M80,295.9
	c0,0-11.9-2.1-25.2-5.9C54.8,290,64.1,295,80,295.9z M31.5,336.5c10.7,4.1,36.2,11.6,74.5,9.1c0,0-51.1-3.2-74.5-9.7
	c-1.6-0.7-2.2-1.3-3.1-1.6c-1.1-0.4-3.8-0.9-4.9-0.8c0,0,2.6,1.4,4.5,2.2C28.8,336.1,30,336.3,31.5,336.5L31.5,336.5z M86.2,308.3
	c0,0-28.6-2.7-59.2-13.8C27,294.5,50,306,86.2,308.3z M82.3,301.8c0,0-22.2-2.1-45.9-10.7C36.3,291.1,55.4,300.7,82.3,301.8
	L82.3,301.8z M108.5,339.2c0,0-51.3-1.2-82.9-11.7C25.6,327.6,54.4,342.6,108.5,339.2z M103,322.1c0,0-35.7,1.7-76.8-9.9
	C26.2,312.2,58.2,326.3,103,322.1z M26.3,317.6c0,0,33.6,14.3,79.2,9.5C105.5,327.2,64.8,328.5,26.3,317.6z M72.6,316.5
	c-11.1-1.6-27.2-4.6-47.4-10.4c0,0,13.2,6.7,43.8,10.4c7.9,1.4,26.7,4.1,40.4,1.3C109.4,317.8,91.2,318.1,72.6,316.5L72.6,316.5z
	 M26.3,322.4c0,0,27.9,14.6,76.4,10.2C102.7,332.5,48,331.5,26.3,322.4L26.3,322.4z M32.6,343.7c11.3,4.2,35.3,11.1,72.4,8.7
	c0,0-48.6-3.1-72.4-9.4c-1-0.7-2.4-1.5-3.4-1.8c-1.4-0.4-4.5-0.8-5.6-0.8c0,0,2.6,1.4,5,2.4C29.6,343.2,31.2,343.7,32.6,343.7
	L32.6,343.7z M88.5,308.6c0,0,28.8,3.3,33.5,0C122,308.6,113.5,309.2,88.5,308.6z M104.6,300.9c0,0,14.8,1.5,15.4-0.2
	C120,300.8,119.8,299.4,104.6,300.9z M-49.2,270.9c3-1.7,4.8,7.9,4.8,7.9s0-21.8-10-17.3c-5.6,2.5,0.2,22.3,10,22.1
	C-44.4,283.5-54.7,273.9-49.2,270.9L-49.2,270.9z M120.3,304.9c0,0,0.6-1.5-22.9,0.2C97.4,305.1,120,306.6,120.3,304.9L120.3,304.9z
	 M79.2,312.6c-11.5-1.6-31.5-5-53.9-12c0,0,16,8.9,57.3,12.6c6.5,1,21,2.6,32.3-0.6C114.8,312.6,97.6,314,79.2,312.6L79.2,312.6z
	 M97.5,402c-14.8-0.5-26.4-2.3-35-3.2c-13.4-1.5-21.6-1.8-21.6-1.8s14.3,3.6,21.4,4.7c10.6,1.7,22.5,1.8,34.4,2.1
	c5.7,0.2,11.5,0.2,17.2,0.2c10.9,0.6,31.5,1.2,54.2-1.2v-2.3l-38.8,1.8C117.4,402.5,106.8,402.4,97.5,402z M89,406.7
	c-10.9-0.5-19.7-1.9-26.5-2.6c-12.1-1.2-20.5-1.8-20.5-1.8s13.7,3.7,20,4.7c8.2,1.3,17.2,1.6,26.5,2.1c11.7,0.6,23.8,0.6,35.2,0.3
	c8.7,0.6,24.3,0.9,44.3-1.8v-2c-12.2,0.2-30.6,0.7-43.3,1.9C110.9,407.4,99,407.2,89,406.7L89,406.7z M75.5,421.5
	c-5-0.4-9.2-1.5-12.7-1.9c-8.7-0.9-15-1.1-15-1.1s10.2,3.2,14.7,4.1c4,0.8,8.3,0.6,12.7,1.1c3.4,0.4,6.9,0.7,10.4,0.9H164
	c1.3-0.1,2.6-0.2,4-0.4v-2.3c-9.7,0.1-22,0.4-31.7,1.2C109.7,423.3,89.5,422.5,75.5,421.5z M-14.2,312.9c1.4,3.8,8,4,8.3-0.8
	c0.2-4-4.2-3.3-4.2-3.3s-2.5-0.6-1.2-3.3C-11.3,305.6-15.5,309.1-14.2,312.9L-14.2,312.9z M82.9,411.6c-8.5-0.4-15.4-1.8-20.8-2.3
	c-10.3-1-18.2-1.5-18.2-1.5s12.6,3.4,18.1,4.2c6.3,1,13.2,0.9,20.3,1.4c14.9,1,30.9,1.1,45.5,0.7c8.2,0.5,22.2,0.8,40.2-0.6v-2.4
	c-13.1,0-29.8,0.3-41.5,1.4C108.9,412.6,94.5,412.2,82.9,411.6L82.9,411.6z M51.4,424.5h7.3c-5.7-0.5-9.6-0.8-9.6-0.8
	S50,424.1,51.4,424.5L51.4,424.5z M113.2,141.7c0,0-20.2-2.7-25.6-16.1C87.6,125.6,89.8,141.9,113.2,141.7L113.2,141.7z M79.6,416.4
	c-7.2-0.4-13.1-1.7-17.7-2.2c-9.1-0.9-15.9-1.2-15.9-1.2s11.1,3.2,15.9,4c5.4,0.9,11.3,0.8,17.4,1.3c15,1.3,31.5,1.4,46.6,1
	c7.9,0.6,22.7,1,42.1-0.7v-2.2c-11.6,0-26.9,0.2-38.5,1.1C108.7,417.7,92.2,417.2,79.6,416.4L79.6,416.4z M99.9,391.5
	c-4.4-0.2-11.6,1.4-16.1-0.6c-3.5-1.5-8-1.6-16.2-2.4c-22.3-2.1-30-2.7-30-2.7c6.8,2,16.1,4.9,26.1,6.1c8.3,1,15.6,2.1,24.8,1.6
	c4-1.2,13.9,0,17.5,0c20.2,0.3,39.6-0.3,53.4-0.9c1.5,0.3,4.4,0.7,8.9,0.8v-2.5c-2.9,0.3-5.5,0.7-7.9,1.1
	C135.3,392.4,116.7,392.2,99.9,391.5L99.9,391.5z M144.9,222.2c0,0-3.3-0.9-6.1-2.4c-1.6-0.9-4.2-1.2-6-0.8c0,0,2,0.6,5.2,2.2
	C139.7,222,142.1,222.7,144.9,222.2L144.9,222.2z M153.5,306.3c0,0,4.5,0.9,9.2,1.3c-1.2,1.1-3,2.1-6.6,2.2
	c-9.2,0.5-10.9-3.2-16.4-5.2c-5.2-1.9-10.3-2.4-11.7-0.6c-0.4,0.5-0.3,0.9,0,1.2c-3.6,0.1-7.1-1.1-7.1-1.1c3.4,3.1,7.4,3.3,9.2,3.2
	c0,0.2,0,0.5-0.3,0.8c-1.4,1.7-7.9-0.2-7.9-0.2s3.3,3.8,7.4,3.9c4.1,0.2,6.1-1.7,9.6,0c3.5,1.7,4.6,4.2,6,6.7
	c2.2,3.7,6.1,1.4,7.9,3.5c0.3,0.3,0.6,0.6,0.8,1c-6.5,2.5-10.2-1-10.2-1c2,6.8,10.3,3.8,12,3.1c0.8,0.8,1.4,1.4,1.4,1.4
	c-1.8,0.2-4.1,2.2-5.5,3c-8.4,2.6-8.7-3.4-17.2-3.6c-7.3-0.2-10.8,4.1-14.7,5.4c-3.9,1.4-7.5,1.6-12.7,0.3l-4.8,4.6
	c19.9,3.9,19.7-0.5,28.5-0.5c8.8,0,9.7,3.5,15.2,3.8c5.5,0.3,10.6-2.6,14.5-2.1c1.6,0.2,3.3,0.8,4.9,1.3h-0.2c0.3,0.2,0.6,1-0.7,1.1
	c-4.8,1.2-7.1,1.6-11.8,2.3c0,0,5.4,0.3,13.1-0.4c1.6,0.6,0.4,2.6-0.8,2.9c-5.9,0.9-12.8,1.1-19.2,1c0,0,7.2,2,18.3,1.1
	c2.2,0-0.2,2.3-1.3,2.5c-13.5,2.5-34-1.3-34-1.3c9.3,3.9,24.7,4.1,29.6,3.7c5.3-0.4-2.6,2.6-13.1,2.4c-4-0.2-8.8-0.7-14.2-1.4
	c-3.8-0.5-12-1.9-12-1.9c3.5,2.1,17.7,6,17.7,6c-3.7,2.2-20.1,1-20.1,1c8.8,2.5,19.8,3,19.8,3s3,0.1,9.2,0.2
	c9.2,0.7,16.8,1.5,22.7,1.9v-32.7c-1.2-0.7-2.4-1.4-3.8-1.9c-1.5-0.6-2.4-1.6-2.7-2.8c1.5,0.1,3.8,0.5,6.5,1.7v-2.8
	c-2.1-0.8-4.2-1-6.6-1c0.1-1.1,0.5-2.3,1.1-3.5c1.3,0.1,3.2,0.4,5.4,1v-2.4c-1.4-0.3-2.8-0.4-4.3-0.5c0.6-0.9,1.2-1.7,1.9-2.4
	c0.5,0,1.3,0,2.4,0.2v-1.9c-0.2,0-0.5,0-0.7,0c0.2-0.2,0.5-0.4,0.7-0.6v-9.7c-1.3,0.2-2.1,0.6-2.8,1.3
	C163.5,304.9,157.5,306.3,153.5,306.3z M145.7,309.6c0,0,6,3.8,14.4,1.2C160.1,310.8,152.8,318.1,145.7,309.6L145.7,309.6z
	 M56.3,372.7c2.5-0.5,8.4,1.2,10.8,1.6c10.1,1.5,18.4,1.9,32.3,1c0,0-14.8-0.8-33.1-3.2c-2.9-0.4-9.4,0.1-12.3-1.6
	c-2.1-1-4.8-1.7-9.3-2.7c-6.3-1.4-10.7-2.2-14.7-2.6c0,0,6.4,3.4,14.4,5.7C47.7,371.7,53.6,373.1,56.3,372.7L56.3,372.7z
	 M48.4,365.4c2.3-0.5,7.3,1.2,10.1,1.7c10.9,2,23.1,3.3,40.5,2.2c0,0-19.9-1-39.9-3.9c-3-0.4-9.4-0.3-12-1.8
	c-2.2-1.3-3.8-1.9-7.3-2.8c-2.6-0.6-7.3-1.5-10.7-1.6c0,0,5.1,2.9,10.6,4.7C42,364.8,46.5,365.6,48.4,365.4L48.4,365.4z M41.9,358.3
	c2.9-0.1,8.2,1.8,11.1,2.5c11.6,2.6,24.9,4.3,45.9,3c0,0-25.3-1.3-46.8-4.8c-3-0.5-9.4-0.8-11.3-2.1c-1.3-0.9-3.1-1.9-4.6-2.3
	c-2.4-0.6-7.1-1.1-9.3-0.9c0,0,4.6,2.2,8.6,3.7C37.3,357.9,40.1,358.3,41.9,358.3L41.9,358.3z M66.3,379.9c3.3-0.4,8,1.2,11,1.4
	c8.2,0.7,15,0.8,25.1,0.2c0,0-8.5-0.3-25.4-2.3c-2.2-0.3-10.1,0.7-14.1-1.6c-4.1-1.8-7.2-2.5-12.4-3.5c-7.6-1.5-14.3-1.8-17.9-2.4
	c0,0,7.1,3.7,17.6,6.3C54.7,379.2,61.9,380.5,66.3,379.9L66.3,379.9z M75.8,386.5c3-0.7,6.5,0.6,9.6,0.7c9,0.3,19.4,0.4,31.6-0.1
	c0,0-13.6-0.3-32.7-1.7c-2.6-0.2-7.8,0.6-11.6-0.8c-3.6-1.1-7.8-1.9-15-2.9c-9.5-1.4-18.9-2.4-22.6-2.7c0,0,10.1,4.1,20.1,5.7
	C60.7,385.7,68,387,75.8,386.5L75.8,386.5z M168,382.9v-2.4c-20,0.6-31.1,1.6-31.1,1.6C148.6,382.7,159,382.9,168,382.9L168,382.9z
	 M37.2,351c2.5,0,6.9,1.7,9.8,2.5c13.4,3.5,32.3,6.6,60.4,4.9c0,0-34.2-1.6-59.3-6.1c-2.9-0.5-9.6-1.2-11.4-2.3
	c-1.4-1.1-3.1-1.6-4.4-2c-1.7-0.5-5.2-0.9-6.8-0.9c0,0,3.7,1.9,6.7,3.1C33.5,350.7,35.4,350.8,37.2,351L37.2,351z M168,153.3V152
	c-3.5,0-7.4,0.2-11.7,0.6C156.3,152.6,161,152.7,168,153.3L168,153.3z M150.1,397.5c-12.5,0.6-23.8,0.8-34.3,0.7
	c-20.9-2.1-14.7-1.6-31-2.6c-24.3-1.5-45.7-4.7-45.7-4.7s19.7,5.9,31.4,6.9c35.9,3.2,66.8,2,86.5,0.4c2.8,0.2,6.5,0.2,11.1,0v-3.1
	c-6.8,0.5-13.3,1.2-18,2.2L150.1,397.5L150.1,397.5z M75.6,232.6c-1.7-0.2-11.7-1.2-17.9,0.2l14.2,1.8c-6.8,3.1-11.8,2.4-11.8,2.4
	s6.3,4.3,12.1,3.8c0,0,13.5-15,29.4-15.2c15.9-0.2,20.6,10,20.6,10s-9-5.8-20.7-4.4c-11.7,1.3-24.4,9.8-24.4,9.8s6-0.4,8.6,1.9
	c2.7,2.3,13.4,5.9,20.4,4.2c6.7-1.6,16-5,17.3-1.5c-3.7,1-8.8,5.9-17.4,6.1c0,0,6.1,0.7,12.2-0.6c3.9-0.5,14.1-1.6,15.3-1.4
	c0,0-4.7-0.8-9-1c-1.5-0.1,1.3-1.7,2.4-1.8c0,0,0,0,0.1,0c3-0.3,10-1,11.9-1.1c0,0-2.6-1-8.5-1.2c-1.9,0.1,0.2-2.6,2.4-2.8
	c3.3-0.1,8.8-0.1,10.6-0.3c0,0-2.6-1.4-8-1.9c-2-0.1-3.7-2.7-2.2-2.7c5.7-0.1,14.3-0.5,14.3-0.5c-2.4-0.8-9.9-1.8-13.6-2.1
	c-1.2-0.1-1.4-3.2,1.5-3.1c2.6,0.1,8,0.4,8,0.4c-2.2-0.8-5-1.8-6.9-2.7c-2.7-1.3-0.4-1.9,1.4-2.1c1.2-0.1,2-0.2,2.7-0.6
	c-5.2-1.6-14.2-9.1-26.9-9.1c-2.5,0-7.5,0.9-11.2,1c-6.2,0.1-11.1,0-23.2,2.1c0,0,28-0.4,34.9,0.9c1,1.4,1.7,3-0.5,2.8l-1.3-0.1
	c-2.9-0.4-5.5-0.6-8-0.7c-9.3-0.6-23.1-0.9-35.9,1.3c0,0,10.2,0.2,21,0.5c-2.5,0.8-4.6,1.7-6.4,2.7c-3-0.3-10.3-0.8-21.4,0.7
	l17.8,1.6c-0.9,0.6-1.7,1.2-2.4,1.7C76.4,232.1,76,232.4,75.6,232.6L75.6,232.6z M88.5,241.5c0,0,1.7-1.4,4.9-2.4
	c2-0.6,3.4-0.1,3.4-0.1s0.1,2.5-3.4,2.3c3.8,4.2,13.8,2.7,13.8,2.7S97.7,248.1,88.5,241.5L88.5,241.5z M109.4,243.1
	c-1.1,0-0.9-0.8-0.9-1.7s-0.2-1.7,0.9-1.7c1.1,0,3.2,0.8,3.2,1.7S110.5,243.1,109.4,243.1L109.4,243.1z M143.5,186.7
	c0,0,10.8,0.2,24.6,2.3v-2.2C162.1,186,154.1,185.8,143.5,186.7z M159.1,243.9c0,0,3.7,0.5,8.9,2.1v-2.3
	C165.6,243.4,162.6,243.4,159.1,243.9L159.1,243.9z M27.5,291.4c0,0,4.6-8.6-3.8-15.6c-6.5-5.4-9.6-10.8-9.6-10.8s1,5.2,7.7,11.9
	c4.6,4.6,3.8,6.1,2.1,7.5c-1.2,1-2.1-5-6.7-7.9c-2.3-1.5-5.6-5.4-7.3-8.8c0,0,1.2,7.5,5.2,11c3.7,3.2,5.6,7.5,5.6,8.3
	c0,0-5.6-0.8-9.2-3.5C11.4,283.5,17.3,291.8,27.5,291.4L27.5,291.4z M168,387.9v-2.2c-23,0.6-47.6,1.5-47.6,1.5
	C139.8,388.4,155.7,388.4,168,387.9z M168,195.8v-1.6c-4.1-0.4-8.7-0.6-14.1-0.6C153.9,193.7,159.7,194.3,168,195.8z M168,223.2
	v-1.9c-3.5,0-7.4,0.2-12,0.7C156.1,222,160.9,222.2,168,223.2L168,223.2z M157.9,254.3c0,0,4.3,0.6,10.1,2.4v-2.6
	C165.3,253.8,162,253.7,157.9,254.3L157.9,254.3z M158.3,264.6c0,0,4.1,0.5,9.7,2.3v-2.4C165.4,264.1,162.2,264.1,158.3,264.6
	L158.3,264.6z M158.3,249.1c0,0,4.1,0.5,9.7,2.3V249C165.4,248.6,162.2,248.6,158.3,249.1z M-30.1,167.7c2.3,4.6,0.7,7.9,0,9.1
	c3.3-3.7,5.4-2.8,5.4-2.8c-1.9,2.1-3.1,4-5.8,11.5c-2.7,7.5-9.8,14.2-9.8,14.2c11.5-6.7,13.3-17.3,15.6-21.3c2.3-4,7.3-5.2,7.3-5.2
	c-0.2,3.3,2.7,6.9,2.7,6.9c-2.3-5.6,4-14.6,4-14.6C-20.9,177.3-30.1,167.7-30.1,167.7L-30.1,167.7z M-6.9,144
	c-4.4,9-11.5,17.7-20,11.7c0,0,7.7,8.8,16.5-1.9c8.8-10.8,6.7-12.9,12.5-14c0,0-4.8,7.5-0.2,18.3c0,0-2.7-12.3,5.8-21.7
	C7.7,136.3-2.5,135-6.9,144L-6.9,144z M37.9,128.7c0,0-5.2,16.1-11.5,21.1c-6.3,5-16.7,10.4-11.9,18.8c0,0-0.6-5.2,2.9-6.9
	c0,0-1.3,5.4,3.5,8.8c0,0-1-8.6,2.9-13.3C27.5,152.7,37.1,143.1,37.9,128.7L37.9,128.7z M167.6,130c-4.9,7.5-13.8,14.1-27.1,12.6
	c-6.1-0.7-16.9-4.6-18.8-7.3c0,0,4,5.4,11.3,7.5c7.3,2.1,7.3,5.2,0.4,5.4c-6.9,0.2-10-3.3-15.6-2.9c-5.6,0.4-8.8,3.9-15.2,3.3
	c-6.3-0.6-14.8-5.2-15.8-14.6c0,0-16,1.3-22.3-9.5H63c0.8,6.6,3.7,18.4,13.9,22.8c0,0-3.8-4.8,1-6.9c0,0,8.1,8.1,15.9,9.6
	c0,0-11.9,7.9-25-3.5c0,0,4.6,8.1,12.3,9.6c0,0-18.4,6.1-23.6-11.5c0,0-1.7,18.4-11.7,20.6c0,0,0-3.9,2.5-7.3
	c2.3-3.2,7.9-16,9.5-33.3h-0.6c-1.9,8.6-6.5,28.2-11.5,32.4c-6.3,5.4-9.2,10.8-6.7,16.9c0,0-3.3-3.1-3.1-8.3c0,0-2.7,8.6-1.3,14
	c0,0-6.2-6.9-3.7-16.3c1.3-7.1,10.6-6.5,13.4-19c0,0-4.4,8.3-10.6,10.6c0,0,10-10.2,10-24c0,0-2.5,13.5-13.6,22.9
	c-11.1,9.4-6.3,16.7-6.3,16.7s0.2-6.9,4.6-9.4c0,0-2.9,11.7,2.9,18.4c0,0-5-2.3-6.5-5.4c0,0-0.4,19.6,29.4,13.1
	c0,0-19.3,10.1-35.7-3.5c-11.9-9.8-13.6-16.3-12.7-23.4c0,0-1.9,4.4-6,7.1c-4,2.7-14.4,10.2-1.7,19.8c0,0-4.2-5.4-2.7-9.6
	c0,0,2.5,7.5,8.6,11.1c0,0-5.6-8.3-4-12.5c0,0,5.6,12.5,13.3,16.1c0,0-4.4,0-8.1-2.5c0,0,2.9,4.2,7.1,7.1c0,0-15,5.8-26.1-14
	c0,0-3.7,1.7-5.6,4.8c0,0,3.8-3.3,6,0c2.1,3.3,1.3,5.6-1.4,7.9c-2.7,2.3-11.1,4-18.3,12.9c-3.5,4.4-8.5,11.2-6.9,23.2
	c1.4,10.6,5.8,20.2,13.1,26.1c0,0-16.4-2.8-23.8-21.7c-4.4-11.3-5.2-24.8,8.6-40.2c0,0-11.3-5.8,10.6-30.7c0,0-2.7-12.5,13.1-15.9
	c0,0-2.2-11.9,11.2-24.7h-14.5c3.1,3.6,2.2,7.4,1.4,9.1l-0.4,0.6c-2.1-2-6.1-5.5-12.2-9.6h-19.8c1.2,1.6,2.7,4.2,3.7,8
	c-1.5-0.8-3.1-1.5-4.6-2.2c-0.4-1.3-1.4-3.8-3.1-5.8h-3.9c0.7,1,1.4,2.1,1.8,3.6c-2-0.8-4-1.6-6.1-2.4c-0.1-0.2-0.3-0.7-0.6-1.2H-84
	c-4.3,4.3-10.6,7.3-15.1,9.1c-2.4-0.6-5-1.1-7.5-1.6c5.9-2.2,10.4-5.3,13.1-7.4h-5.3c-3.3,2.9-7.4,5.2-10.8,6.8
	c-0.3-0.1-0.6-0.1-0.9-0.2c-2.8-0.5-5.6-1.1-8.2-1.6c4.4-1.4,8.2-3.2,11.1-5h-5.2c-3,1.9-6.1,3.3-8.6,4.4c-3.5-0.7-6.7-1.4-9.9-2.1
	c2.9-0.5,5.6-1.4,7.9-2.3h-8.4v9.2c1.8,0.1,4.8,0.3,8.7,0.7c-1.7,1.7-4.5,3.8-8.7,5.9v3.6c6.2-2.4,12.6-6.4,15.3-8.8
	c2.1,0.3,4.4,0.6,6.8,0.9c-4.3,5.3-14.2,10.2-19.6,11.7c-0.8-0.2-1.6-0.4-2.4-0.5v12.2c0.9-1,1.8-2,2.7-3.1l6.4-0.7l2.9-0.4
	l-0.1,0.2l-0.4,0.6c-0.1,0.1-3.8,5.2-11.5,10.8v3.3c4.7-3.5,10.3-8.3,15.7-14.7l0.1-0.1l0,0l9.2-0.7l-0.4,0.6l-0.2,0.2
	c-0.1,0.1-8.2,10.9-24.4,18.4v16.9c3.6-4.1,5.3-7.6,5.9-9.2l3.1-0.7c-2.7,6-6.3,10.2-9.1,12.8v5c7.9-0.2,16.2,0.7,22.7,4.5
	c-2.7,0.2-5.4,0.5-8.1,0.9c-2.3-1.5-6.9-3.7-14.6-5v2.8c2.5,0.9,5.1,2,7.4,3.3c-2.5,0.5-4.9,1-7.4,1.6v2.6c1.8-0.3,3.6-0.6,5.4-0.9
	l-0.1,0.5c-0.1,0.3-1.2,6-5.3,11.5v3.8l0.9-0.7c0.1-0.1,6.5-5.5,9.8-15.4l0.1-0.4c1.9-0.2,3.7-0.5,5.5-0.6l-0.1,0.5
	c-0.1,0.5-3.5,12.3-10.4,16.5l-5.8,0.8v0.9c1.1-0.1,2.1-0.2,2.9-0.3c7.7-0.7,18.7-1.4,28.9-0.8c-10,1.2-19.2,2.6-27.6,4.2l-4,0.8
	c-0.1,0-0.1,0-0.2,0v6.7c1.5-2.3,2.7-4.2,3.3-5.3c2.5-0.5,4.9-0.9,7.2-1.3c-3,6.2-7.1,11.3-10.6,14.9v2.9
	c8.1-6.4,13.6-15.1,15.6-18.6c2.4-0.4,4.7-0.7,6.8-0.9c-4.7,9.7-12,17.1-15.3,20.2c-2.4,0.2-4.8,0.5-7.1,0.8v5.8
	c1.6-1.8,2.3-3.4,2.4-3.8c0.2,0,1.8-0.2,2.5-0.2c-1.1,3.2-3.3,5.1-4.7,6.1l-0.2,0.1v5.8c1.3-0.2,2.6-0.4,3.9-0.6
	c-1.2,2.4-2.5,4.3-3.9,5.9v2c3.7-3.2,6.1-6.7,7.3-8.5c1.9-0.3,3.8-0.6,5.7-0.9c-3.3,6.7-8.2,10.7-10.6,12.3c-0.7,0-1.5,0-2.4,0v10.2
	c1-0.8,2.1-1.7,3.2-2.8c0.3,0,0.6-0.1,1-0.2l5.6-0.9c-1.7,2.4-4.6,5.8-9.2,8.8c-0.2-0.1-0.4-0.1-0.6-0.2v2.2c0.2,0,0.3,0.1,0.5,0.1
	c6.2,1.1,12.3,1.8,17.5,2.2c1.6,0.2,3.9,0.5,7,0.7l-4,1.3l-3.5,1.2l-3.1,1c2.8-0.2,5.6-0.2,8-0.1c3.1,0.1,5.7,0.4,7.1,0.6
	c-0.9,0.3-1.8,0.5-2.6,0.8c-2.4,0.7-4.5,1.4-6.4,2.1c-1.1,0.4-2,0.7-3,1c-8.4,3-12.2,4.9-12.2,4.9c2.2-0.6,9.2-2.5,17.5-4.8
	c-1.8,2.2-5.2,5.6-10.2,8.5c-1.5-0.1-3-0.3-4.3-0.6c-6.9-1.3-3.3-6.7,0.3-10.7c0,0-6.8,4.1-6,9.2c1,6,15.2,5.3,15.2,5.3
	s-12,6.1,7.6,8.2c5.9-2.2,9.1-8.6,10.1-8.5c0.8,0.1,0.4,2.3-3.8,9.3c3.3,0.1,6.3,0.1,9.2,0c0,0,6.1-2.6,11.5-11.5l1.4-0.1
	c0,0-1.9,7.1-6.7,11.3c1.5-0.1,2.9-0.2,4.3-0.3h0h0c-2.1,1.3-3.9,2.5-5.5,3.6c-0.9,0.6-1.7,1.2-2.4,1.7c-2.5,1.9-4.1,3.4-4.9,4.3
	c-0.5,0.6-0.8,0.9-0.8,0.9c0.3-0.3,0.8-0.6,1.2-1c0.9-0.7,2-1.4,3.2-2.2c2.2-0.6,7.1-1.7,10.4-0.8c-1.9,0.8-3.7,1.7-5.5,2.5
	c-1.4,0.6-2.7,1.3-3.9,1.9c-4.1,2-7.4,3.9-9.2,5.3c0.1-1.2,0.5-2.1,0.5-2.1c-2.5,2.5-5.2,7.7,1.1,10.5c0.6-0.3,1.9-1,3.8-2.3
	c0,0,0,0,0,0c6.5-4.2,9.7-9.5,10.9-11.8l5.3-2.1c-3.4,6.7-9.1,12.1-12,14.6l0,0c-0.1,0-0.1,0.1-0.2,0.2l-0.4,0.3
	c-1,0.8-2.4,1.9-3,2.3c8.1,1.4,16.1,0.5,24.7-1.7c0.4-0.1,0.9-0.2,1.4-0.4c0.3-0.1,0.7-0.2,1-0.3c-1.7,1.3-3.9,3-6.2,5.1
	c-1,0.9-2,1.7-2.9,2.7c-2.1,2-4.2,4.3-6.2,6.6c-0.6,0.7-1.1,1.4-1.6,2.1l0,0h0c0,0,0,0,0,0c-0.6,0.8-1.2,1.7-1.7,2.5
	c0,0,1.2-1.2,3.3-3.2c2.8-1.1,8.7-3.1,12.9-2.6c-0.7,0.5-1.4,1.1-2,1.6c-1.3,1-2.5,2-3.7,2.9c-9,7.3-12.1,10.9-12.9,11.9
	c-0.4-1.2-0.5-2.8-0.2-4.6c0.1-0.5,0.1-1,0.2-1.5c-5.4,9.1,0.2,12.9,8.8,12.5c0.4-0.4,1-1,1.8-1.8c0.5-0.6,1.1-1.2,1.6-2
	c0-0.1,0.1-0.1,0.1-0.2c0,0,0,0,0,0c2.1-2.9,5.5-8.6,6.1-15.6c1.7-1.2,3.4-2.4,5-3.5c-0.1,3.1-0.9,10.1-5.6,17.2
	c-0.1,0.1-0.1,0.2-0.2,0.3c0,0-0.1,0.1-0.1,0.1c-0.5,0.7-1,1.4-1.5,2c-1,1.3-1.9,2.3-2.5,2.9c0.8-0.2,1.6-0.3,2.3-0.5
	c1.7-0.4,3.9-1.3,6.6-2.5c-1,1.2-2,2.7-2.9,4.3c-0.1,0.2-0.2,0.3-0.3,0.5c-1,1.7-1.9,3.7-2.6,6c0,0,2-2.9,5-6.5c2.6-1.3,6.9-3,9.8-2
	l-4.1,3.9l-2.6,2.5c0,0,0,0-0.1,0.1c-0.6,0.7-6.9,7.3-8.9,9.6c-0.6-1.3-0.6-3.1,0.1-5.5c0-0.1,0-0.2,0.1-0.3
	c-0.1,0.1-0.1,0.3-0.2,0.4c-4.6,7.6,1.2,11.8,8.4,10.9c3.3-0.4,7.1-0.9,13.5-3.8c-6.1,12.3-3.9,18.3-3.9,18.3
	c0.1-3.9,1.4-7.7,3-11.1c0.3-0.7,0.7-1.4,1-2c2.4-1.3,7.4-3.6,11-2.9c-0.6,0.7-1.1,1.3-1.7,2c-1.3,1.6-2.6,3.2-3.8,4.7
	c-0.8,1.1-1.6,2.1-2.4,3.2c-2.4,3.2-4.7,6.4-6.7,9.4c0,0,3.1-3.1,7.8-7.8c0.2,1.7,0.3,5.4-1.4,9.6c-1.6,0.2-3.2,0.2-4.6,0
	c0,0,6,2.6,13.4,0.3c0,0-1.6,1.6-3.5,3.8h12.5l0.1-0.1c0,0,0,0,0,0.1h3.3c-0.1-1.4-0.1-2.6-0.2-3.4c1.4-1.5,2.8-3,4.2-4.4
	c0.2,2.6,0.4,5.3,0.4,7.8h2.1c0.2-4.5,0.1-8.4,0.1-10.6c1.4-1.5,2.8-2.9,4.1-4.4c0.9,5.1,0.9,10.6,0.7,15h1.8
	c0.9-7.4,0.6-15,0.5-18.1l3.7-3.9c1.2,7.9,0.5,17-0.1,21.6l-0.5,0.4h8.9c-0.6-1.1-1-1.6-1-1.6l3.9-3.6c0.7,1.6,1.3,3.4,1.8,5.1h4.6
	c-0.8-5.5-2.3-9.1-2.3-9.1l3.9-3.7c1.4,3.8,2.2,8.4,2.6,12.7h3c0-10-2.5-16.1-2.5-16.1l4.6-4.8c2.9,5.4,2.9,14.9,2.4,20.8h12.6
	l0-0.3c0,0-2-18.2-3.3-24.4c0,0-2.2-10-4.9-19.4c-2.1-7.2-10.3-12.8-14.1-13.5c-6-1.1-12-3.8-12.6-11.6c0.7,2.8,3.1,5.9,10.2,7.1
	c10.9,1.8,14.5,9.3,14.5,9.3s-3.2-9.6-12.3-12c-8.9-2.5-13-4-12.3-9.1c1-5.6,4.3-5.5,4.3-5.5s-3.5,6.3,6.9,8.7
	c10.2,2.4,11.3,8.3,11.3,8.3s-4.4-41.1-2.9-68c0,0-10.6-3.3-16.2-14.6c0,0,3.4,13.6,10.1,16.7c3.6,1.7-9.2,0.8-14-2.4
	c0,0,9.5,9.8,8.7,20c-2.8-8.6-8-10-8-10s10.7,16.2-1.9,23.6c0,0,7.3-8.5,1.2-15c0,0,1.2,11-8.4,11.5c-9.6,0.6-18.4-14.8-1.2-28.6
	c0,0-6.9,2.3-10,5.8c-2.9,3.2-10.3,4.8-11.7,0.9c0-0.1,0-0.2-0.1-0.3c0-0.1,0-0.1,0-0.2c-0.1-1,0.1-2.2,0.2-3.3
	c0.6-2.8,3.2-13.4,8.2-22.3c4.4-7.8-0.1-13.1-2.6-15.2c5.6,0.9,9.8,0.3,9.8,0.3s1,7.9-1.5,14.2c-2.4,6.4-7,12.4-7.3,19.4
	c0,0,4.2-10.3,8.8-14.5c4.6-4.2,3.6-7.3,3.6-7.3s1.8,7-2.1,11.8c-3.9,4.8-3.9,10.9-3.9,10.9s2.7-5.9,5.2-7.9
	c4.2-3.3,3.9-7.6,3.9-7.6c2.3,7.5,6.9,11.9,6.9,11.9c-1.3-2.1-2.3-7.1-2.5-11C-5,277.2-8,268.2-8,268.2c3.8,0.4,9.8,7.7,9.8,7.7
	C-2.1,258,8.9,266,8.9,266c-2.3-5-2.7-10.3-1.9-13.3c0.8-3.1,5-9,3.8-3.1c-1.2,6,2.5,13.3,2.5,13.3c-1.5-6.7,0.3-11.9,3.2-16.2
	c0,0-1.7,12.2,7,19.3c8.6,7.1,7.5,15.5,7.5,15.5c2.9-7.1,0.7-11.2-2.4-14.9l6.1-0.2c-3.1-0.7-5.7-1.4-8-2c-0.9-1-1.8-2-2.7-3
	c4.9-0.2,8.4-0.2,8.4-0.2c-4.4-1.1-7.8-2.1-10.6-2.9c-0.6-1-1-1.9-1.4-2.8c5.6-0.2,9.8-0.4,9.8-0.4c-4.5-1.2-7.9-2.3-10.8-3.2
	c-0.1-0.7-0.2-1.5-0.2-2.2c6.9-0.4,11-0.8,11-0.8c-4.2-0.9-7.7-2-10.6-2.7c0.2-0.8,0.4-1.6,0.6-2.3c7.1-0.7,12.9-1.3,12.9-1.3
	c-4.6-0.8-8.1-1.6-11-2.2c1-1,1.9-1.9,2.5-2.8c7.9-0.4,14.7-0.7,14.7-0.7c-5.2-0.9-9.3-1.8-12.7-2.3c0.5-1,0.8-2,1.1-3
	c7.4-0.3,13.5-0.6,13.5-0.6c-5.4-0.9-9.5-1.5-12.8-2c0.1-0.2,0.1-0.4,0.2-0.6c0.4-1.4,0.7-2.4,1-3.2c7.5-0.5,12.8-0.8,12.8-0.8
	c-4.9-0.6-8.9-1.2-12.3-1.7c0-0.7-0.2-1.4-0.8-2.6c-0.1-0.3-0.2-0.6-0.2-1c9.5-0.9,16.9-1.3,16.9-1.3c-5.9-0.8-10.4-1.5-14-1.9
	c1.5-0.9,3.4-1.7,5-2.4c7.5-0.9,13.1-1.4,13.1-1.4c-3.7-0.5-6.9-1-9.8-1.3c0.7-1.3,0.6-2.7,0.5-3.5c7.2-0.8,12.5-1.2,12.5-1.2
	c-2.9-0.7-5.7-1.1-8.2-1.5c2.7-1.3,5.2-2.5,7.4-3.8c0.7-0.4,1.3-0.8,2-1.2c8.5-5.2,13.3-10.7,15.8-17.6
	c3.9-10.5,11.7-15.1,17.5-17.2c-6,0.1-12.6,2.6-15.4,5.8c-8.5,9.8-22.3,5-23.4-4c0,0,4,6.7,14,5.6c0,0-9-1.5-11.1-7.9
	c0,0,5.5,4.1,10.7,3.7c0,0-8.3-3-7.5-8.5c0,0,4.5,5.9,11,5.2c6.7-0.7,10.5-3.2,16.2-3.4c5.7-0.2,9.5,1.5,14.6,1.7
	c20.1-1.5,39.9-11.6,39.9-11.6c16.1-0.4,25.7-6.9,31.4-14.1v-8.3C167.9,129.5,167.8,129.8,167.6,130L167.6,130z M-93.6,343.2
	c-0.3-0.1-0.7-0.2-1-0.4c-2.5-1.1-3.2-3-3.2-4.6l13-5.2C-87.4,337.5-91.2,341.2-93.6,343.2L-93.6,343.2z M-86,374.6
	c3.2-2.3,6.4-4.7,9.6-7c-0.4,2-1.6,6.1-5.1,10.2C-83.8,377.5-85.3,376.4-86,374.6L-86,374.6z M-75.2,377.4c-2,0.4-3.6,0.6-5.1,0.5
	c2.1-2.2,5.6-6.5,6.2-11.9c1.4-1,2.9-2.1,4.3-3.1C-70.2,365.7-71.5,372-75.2,377.4L-75.2,377.4z M10.4,407.6l-3.8,3.6
	c2.2-9.1,2.1-20.5,2-24.8l2.7-2.8C13.9,396.7,10.4,407.6,10.4,407.6L10.4,407.6z M3.2,368.5c1.6,0.8,3.2,1.5,4.8,2.4
	c0.3,2.2,0.8,7.7,0.3,11.4c-1.9,1.7-3.7,3.5-5.6,5.3C3.5,384,4.3,376.7,3.2,368.5z M2.4,392.7l3.1-3.2c1.3,9.2,0,19.9-0.5,23.1
	L0.5,417C2.6,408.2,2.5,397.3,2.4,392.7L2.4,392.7z M-41.8,174.4c-0.1,0.1-6,7.2-14.3,9.3c-1.4,0.4-2.8,0.6-4.3,0.6l-1.2-0.1
	l-1.7-0.2c0,0,0.9-0.3,2.2-0.8c0.6-0.2,1.3-0.5,2-0.8c3.6-1.5,8.6-4.1,10.9-7.2c0,0,1.8,0.1,4.1-0.5c2.3-0.6,2.9-1.2,2.9-1.2
	S-41.8,174.4-41.8,174.4z M-75.4,243.8l-4.3,1.1c0,0,10-4.3,16.7-14.6l4.9-2.4C-58.1,227.9-64.3,239.4-75.4,243.8L-75.4,243.8z
	 M-58.9,253.3l-0.1,0.1L-58.9,253.3L-58.9,253.3L-58.9,253.3z M-52.2,305.2c0,0.3-0.1,1.7-0.9,3.4c-0.1,0.3-0.3,0.6-0.5,0.9l0,0
	c-0.1,0.2-0.2,0.4-0.4,0.6c-0.2,0.2-0.4,0.5-0.6,0.8l-0.1,0.1c-0.1,0.1-0.2,0.2-0.4,0.4c-0.3,0.3-0.5,0.5-0.9,0.8l-0.2,0.2
	c-0.2,0.1-0.4,0.2-0.5,0.4c-0.1,0.1-0.1,0.1-0.2,0.2c-0.3,0.2-0.7,0.5-1.1,0.7c-0.2,0.1-0.3,0.2-0.5,0.3c-0.3,0.1-0.5,0.3-0.8,0.4
	c-0.1,0.1-0.2,0.1-0.3,0.1l0,0c-0.6,0.3-1.3,0.5-2,0.8l0.3-0.4c0,0,0,0,0-0.1l0.1-0.2c0.1-0.1,0.2-0.3,0.3-0.4l0.1-0.1l0,0
	c0.1-0.1,0.1-0.2,0.2-0.3c0.5-0.8,1-1.8,1.5-2.9c0.5-1.2,1-2.6,1.2-4L-52.2,305.2L-52.2,305.2L-52.2,305.2L-52.2,305.2z
	 M-51.2,316.2C-51.2,316.2-51.2,316.2-51.2,316.2c-0.4-0.1-0.8-0.2-1.3-0.3C-52,315.9-51.6,316-51.2,316.2z M-62.7,312.3
	c-0.5,1.1-1.1,2.3-1.8,3.4l-0.1,0.1c0,0-0.1,0.1-0.1,0.1c-0.1,0.1-0.2,0.2-0.2,0.4c-0.1,0.2-0.2,0.3-0.4,0.5c0,0,0,0.1-0.1,0.1l0,0
	c-0.1,0.1-0.2,0.2-0.3,0.3c-0.2,0.2-0.4,0.4-0.6,0.6c-0.1,0.1-0.2,0.3-0.3,0.4l-1,0.2l-0.8,0.2l-2,0.4l-0.3,0c0,0,0.1-0.1,0.2-0.2
	l0.3-0.4l0.1-0.2c0,0,0,0,0,0l0.2-0.3c0.2-0.4,0.6-0.8,0.9-1.4c0.3-0.5,0.7-1.1,1-1.8c0.9-1.7,1.8-3.9,2.4-6.4l4.5-0.9
	C-61,307.3-61.5,309.6-62.7,312.3z M-59.1,303.3c-2.6,0.5-5.4,1.1-8.1,1.5c2.7-2.5,7.3-7.2,10.2-13.1c1.6,0.6,3.1,0.9,4.4,0.9
	C-53.8,295.4-55.9,299.4-59.1,303.3L-59.1,303.3z M-69.1,305.2c-3,0.5-6,0.9-8.6,1.3c3-2.3,9.1-7.6,12.7-14.4
	c1.6-0.2,3.2-0.4,4.8-0.6C-60.8,292.8-63.6,299.2-69.1,305.2L-69.1,305.2z M-75.3,290.4c2.3-1.3,6.7-4.2,9.5-8.3
	c0.6,1.6,1.3,3,2.2,4.3c0.5,0.7,1,1.3,1.5,1.9C-64.5,288.7-69.2,289.6-75.3,290.4L-75.3,290.4z M-70.8,271.3
	c-1.6,3.3-6.7,12.7-17.7,20.5c-2.7,0.2-5.6,0.4-8.5,0.5c3-1.8,14.7-9.5,20.2-20C-74.6,271.9-72.6,271.6-70.8,271.3L-70.8,271.3z
	 M-73.7,269.5c2.5-1.8,5-4.2,7.2-6.6c-0.6,1.9-0.9,4-1,6.2C-69,269.2-71.1,269.3-73.7,269.5z M-67.6,272.2c0.1,2.1,0.3,4.2,0.7,6.3
	c-2.1,4.3-5,8.5-10.7,12.2c-2.7,0.3-5.7,0.7-8.9,0.9C-83.1,289.4-73.1,282.4-67.6,272.2L-67.6,272.2z M-75.7,269.7l-7.5,0.5
	c7.6-5,12.6-13.7,13.8-15.9c2-0.2,4-0.4,5.8-0.5C-67.3,262.1-73.3,267.6-75.7,269.7L-75.7,269.7z M-96.2,246.3c0,0-1.5,0.1-4,0.2
	c9.9-5.3,16.5-14.6,18.6-18c1.7,0.8,3.2,1.7,4.3,2.8C-78.7,234.5-86.5,244.7-96.2,246.3L-96.2,246.3z M-72.8,232.5l5.5-1.7
	c0,0-8.7,12-19.5,14.5l-1.9,0.2C-88.8,245.6-80.1,242.9-72.8,232.5L-72.8,232.5z M-94.6,248.2c0.2,0,1.6-0.2,2.1-0.2
	c-1.1,4.3-4.1,6.1-4.1,6.1c0,0-2.3,0.7-2.8,0.8C-96.7,253.7-94.7,249.4-94.6,248.2z M-101.9,255.1c0,0-2,0.4-2.2,0.5
	c3.1-1.9,4.5-5.7,4.8-7.1c0.2,0,1.7-0.1,2.2-0.2C-97.9,253-101.9,255.1-101.9,255.1z M-82.6,223.8l-5.4-0.4c0.1,0,11-4.2,16.6-16.4
	c2.3,0.2,4.5,0.5,6.5,0.7l-0.1,0.2C-65.4,208.4-74.2,221.3-82.6,223.8L-82.6,223.8z M-87.3,175.1c-0.6,0.2-1.1,0.4-1.7,0.6l-1.2-0.4
	l-2.2-0.6l1.3-0.5c0.1,0,7.1-2.4,13.3-9l0.2-0.2c0,0,1.2,0.2,3.9,0c2.7-0.2,3.8-0.7,3.8-0.7C-71.6,165.9-80.4,172.5-87.3,175.1
	L-87.3,175.1z M-67.8,168.7c2.9-0.2,3.4-0.6,3.4-0.6c-2.8,3.2-10.7,8.1-17.2,10c-0.3,0.1-0.6,0.2-0.9,0.3l-0.5-0.2l-2.6-1.1l1.3-0.4
	c0.1,0,6.9-2,12.9-7.8l0.2-0.2C-71.3,168.7-70.8,169-67.8,168.7L-67.8,168.7z M-97.1,174.1l-4.1-0.7c0.1,0,8.9-3.6,15.5-10.7
	l0.3-0.2c0,0,1.2,0.3,3.4,0.1c2.8-0.2,4.1-0.9,4.1-0.9C-78.3,162.1-87.7,171.2-97.1,174.1z M-96.7,177.6c1.3,0.1,2.2,0.3,2.8,0.4
	c-3.1,6.6-7.1,10.8-9.7,13.1c-0.9,0-1.8,0-2.8,0.1C-99.3,184.7-97.2,179.1-96.7,177.6L-96.7,177.6z M-89.1,180.4
	c0.7,0.3,1.4,0.7,2.2,1c-2.8,4.8-5.9,8.1-8.3,10c-0.8-0.1-1.6-0.1-2.4-0.2C-93,187.1-90.5,183.2-89.1,180.4z M-82.2,183.5
	c0.7,0.3,1.4,0.5,2.1,0.8c-1.5,2.6-3.8,5.8-6.8,8.3c-0.8-0.1-1.7-0.3-2.5-0.4C-85.7,189-83.5,185.9-82.2,183.5L-82.2,183.5z
	 M-75.5,185.9c0.8,0.2,1.6,0.5,2.4,0.7c-2.1,3.3-4.7,5.9-6.7,7.6c-0.8-0.2-1.5-0.4-2.3-0.6C-78.6,190.4-76.6,187.7-75.5,185.9
	L-75.5,185.9z M-77.5,198.8c0.5,0.2,1,0.5,1.5,0.8c0.1,0.1,0.2,0.2,0.3,0.2c1.8,1.2,2.8,2.7,3.4,3.8c-1.2-0.1-2.5-0.3-3.8-0.4
	c-0.6-1.7-2-3.2-3.1-4.2c-0.9-0.8-1.6-1.2-1.6-1.2C-79.5,198-78.4,198.3-77.5,198.8L-77.5,198.8z M-72.2,196.8
	c-0.6-0.3-1.3-0.5-2-0.8c3.7-3.3,5.9-6.1,7.3-8.2c1,0.1,1.9,0.2,2.9,0.3C-67,192.1-70.3,195.2-72.2,196.8z M-65.7,182.8
	c-0.5,0.1-1,0.3-1.4,0.4l-4-0.9c0,0,0.1,0,0.2-0.1c1.2-0.4,8.4-3.3,14.2-8.7l0.1-0.1l0.2,0c1.4,0.1,3.7-0.8,5.8-2.1l1.6-1l-0.9,1.6
	C-51.4,174.7-58,180.4-65.7,182.8L-65.7,182.8z M-75.6,181.5l-3.6-1.1l1.5-0.5c0.1,0,6.7-1.9,12.8-8.1l0.2-0.2c0,0,1.3,0.3,3.5,0
	s4.7-1.7,4.7-1.7C-58,171.3-66.7,179.7-75.6,181.5L-75.6,181.5z M-62.9,165c5-1.3,9.8-4.2,13-6.5c1.3-1,2.4-1.8,3.1-2.4
	c0.6,0.3,1.1,0.5,1.6,0.8c-0.3,0.3-0.6,0.6-0.9,0.9c-5.6,5.2-11.8,7.3-14.7,8.1C-61.5,165.6-62.2,165.3-62.9,165L-62.9,165z
	 M-50.8,154.9c-5.8,5.2-11.2,7.6-14.5,8.7c-0.7-0.5-1.3-1-1.9-1.5c4.8-1.4,9.2-4.1,12.2-6.3c1.2-0.9,2.2-1.7,2.9-2.3
	c0.6,0.3,1.2,0.6,1.8,0.8L-50.8,154.9z M-56.4,152.6c-4.8,4.2-9.4,6.5-12.6,7.8c-0.5-0.6-1-1.1-1.5-1.6c3.8-1.6,7.3-3.8,9.8-5.5
	c1.4-1,2.4-1.8,3-2.3c0.7,0.3,1.4,0.6,2.1,1C-55.9,152.1-56.2,152.4-56.4,152.6L-56.4,152.6z M-62.4,150.1
	c-3.7,3.1-7.2,5.2-10.1,6.6c-0.5-0.6-1.1-1.1-1.7-1.6c2.7-1.4,4.9-2.9,6.4-4c1.2-0.9,1.9-1.5,2-1.6l1.4-1.2c1,0.4,1.9,0.8,2.9,1.2
	C-61.8,149.6-62.1,149.9-62.4,150.1L-62.4,150.1z M-69.3,147.7c-0.3,0.3-0.6,0.5-0.9,0.8c-2.2,2-4.4,3.5-6.5,4.7
	c-0.9-0.5-1.9-0.9-3.1-1.3c1.9-1.1,3.5-2.2,4.8-3.1c1.4-1,2.3-1.8,2.4-1.9l1.4-1.4c1,0.4,2,0.8,3.1,1.2L-69.3,147.7L-69.3,147.7z
	 M-76.1,145.2c-0.7,0.7-1.4,1.3-2.2,1.9c-2,1.7-4,3-5.9,4c-0.7-0.1-1.4-0.2-2.2-0.2c-0.3,0-0.7,0-1,0h-0.3c2.5-1.1,7.3-6,9.2-7.9
	c1.1,0.4,2.3,0.8,3.4,1.2L-76.1,145.2L-76.1,145.2z M-93.1,150.9c-1.2,0-2.6,0.1-4.1,0.1l-0.6,0c3.6-1.3,9.4-7.1,12.3-10.4
	c1.1,0.3,2.1,0.6,3.2,1C-84.4,144.4-89.5,149.4-93.1,150.9L-93.1,150.9z M-91.4,155.9c0.1-0.2,0.3-0.3,0.4-0.5l0.1-0.1l4.1-0.3
	l3.8-0.3l-0.6,0.8c0,0-0.3,0.4-0.8,1c-0.4,0.4-0.9,1-1.6,1.7c-4.1,4.2-13.5,12.5-28.1,17l-3,0.2C-117,175.4-103.6,169.8-91.4,155.9
	L-91.4,155.9z M-105.3,177.7c1-0.1,1.9-0.1,2.8-0.1c-3,6.8-7.1,11.4-9.9,14c-1.2,0.1-2.4,0.2-3.6,0.4c7.5-6.6,9.9-12.4,10.5-14.2
	C-105.5,177.7-105.4,177.7-105.3,177.7L-105.3,177.7z M-106.5,195c1.2,0,2.3-0.1,3.4,0c1.8,0.1,3.4,0.2,4.8,0.5
	c0.5,0.1,0.9,0.2,1.3,0.3c7.5,1.8,9.5,6,9.9,6.7c-0.9,0-1.8-0.1-2.8-0.1l-2.6-0.2c-2.4-4.8-9.4-6.3-13.7-6.8l-0.3,0
	c-1.9-0.2-3.2-0.2-3.2-0.2C-108.6,195.1-107.6,195.1-106.5,195L-106.5,195z M-89.3,196.8l-0.7-0.4c-1.2-0.6-2.1-1-2.1-1
	c0.7,0,1.4,0.1,2.1,0.2c1.3,0.2,2.4,0.5,3.4,0.9c0.7,0.3,1.4,0.6,2,0.9c0.7,0.4,1.3,0.8,1.8,1.2c2.1,1.6,3.2,3.4,3.5,4.2
	c-1.4-0.1-2.8-0.2-4.2-0.3C-84.1,200.1-87,198.1-89.3,196.8L-89.3,196.8z M-82,206.2c2.1,0.1,4,0.2,5.9,0.3
	c-0.8,2.5-4.6,12.9-15.2,16.7l-4.8-0.4l2.1-1C-93.9,221.8-85.6,217.4-82,206.2L-82,206.2z M-91.9,226.7c2.3-0.1,4.1,0,5.3,0l0.9,0.2
	c-5.2,10.6-13.1,17-17,19.7c-2.6,0.2-5.8,0.3-9.4,0.6C-101.5,240.9-93.9,229.8-91.9,226.7L-91.9,226.7z M-110.6,249.2l2.8-0.2
	c-1.2,4.3-4.5,6.6-6.5,7.6l-2.4,0.3C-111.9,253.9-110.6,249.3-110.6,249.2L-110.6,249.2z M-104.4,248.9l2.3-0.2
	c-1.7,5.7-5.7,7.3-5.8,7.3c0,0-1.9,0.4-2.3,0.4C-106.3,254.1-104.5,249.4-104.4,248.9z M-106.8,258.9l5.5-0.8
	c-2.9,6.7-7.3,11.4-10.1,13.9c-2.7,0.2-5.1,0.3-7.3,0.5C-112.7,268.6-108.1,261.2-106.8,258.9z M-97.8,257.6l5.8-0.8
	c-3.1,7.2-8.1,12.2-11,14.6c-2.4,0.2-4.7,0.3-7,0.5C-102.6,266.4-98.9,259.9-97.8,257.6L-97.8,257.6z M-88.4,256.3l5.6-0.8l0.1,0
	c-3.7,8.1-9.6,13.4-12.2,15.4l-6.6,0.4C-93.6,265.3-89.6,258.6-88.4,256.3L-88.4,256.3z M-78.9,255.2l1.6-0.2l4.3-0.4
	c-3.9,8.8-10.1,14.1-12.1,15.7c-2.6,0.2-5.4,0.4-8.2,0.5C-85.9,265.9-80.4,257.5-78.9,255.2L-78.9,255.2z M-76.5,224.4l-2.8-0.3
	c0.1,0,12.1-5,17.9-15.9c2.3,0.3,4.3,0.7,5.8,0.9l-0.3,0.4C-56.3,209.9-65.7,222.1-76.5,224.4L-76.5,224.4z M-53.1,167.7
	c-1.3-0.2-2.6-0.4-3.9-0.7c5.4-1.1,10-4,13-6.2c1.1-0.8,1.9-1.5,2.6-2.1l2.8,1.5C-42.2,163.9-48.7,166.4-53.1,167.7L-53.1,167.7z
	 M-36.7,130.8c5.7,3.8,8.3,12,6.5,13.6c-1.4-1.1-2.8-2.1-4.3-3.1c-0.2-1.3-1.3-7.3-3.9-11.3C-37.8,130.3-37.3,130.6-36.7,130.8
	L-36.7,130.8z M-34.5,147.3c-1.7,1-3.4,1.6-4.9,1.8c-7,1.1-12.4-0.1-13.8-0.5c-1.5-0.7-3.2-1.4-4.9-2.1c9.5,0.7,17-1.4,19.7-2.4
	C-36.6,145.5-35.4,146.6-34.5,147.3L-34.5,147.3z M-43.7,127.5c1.2,1.6,3.3,5.1,4,10.4c-1.5-0.9-3-1.8-4.5-2.7c-0.4-2-1.7-6.6-4-9.6
	C-46.6,126.3-45.1,126.9-43.7,127.5L-43.7,127.5z M-47,138.8c1.8,1,3.4,2,4.9,2.9c-5.9,3-14.2,3.6-18.9,3.7c-2-0.8-4.1-1.6-6.3-2.4
	C-57.6,142.9-50.1,140.1-47,138.8z M-57.1,133.6c2.2,1,4.3,2,6.1,3c-5.9,3.5-14.3,4.9-19,5.4c-1.8-0.6-3.7-1.3-5.6-1.9
	C-66.1,139.1-59.3,135.1-57.1,133.6z M-61.2,131.8c-5.2,4.2-12.7,6.3-17.4,7.3c-2.5-0.8-5-1.5-7.7-2.3c9.8-1.6,16.8-6.1,18.8-7.6
	C-65.3,130.1-63.2,131-61.2,131.8L-61.2,131.8z M-79,125.3c2.5,0.8,4.9,1.6,7.1,2.4c-4.9,4.5-12.4,7.1-17.2,8.4
	c-2.3-0.6-4.6-1.2-7-1.8C-87,131.8-80.8,126.9-79,125.3z M-123.4,148.8c5-1.4,15.7-7.3,19.3-11.9c1.8,0.3,3.5,0.6,5.4,0.9
	c-3.5,4.6-11,10.3-17.2,12.1C-118.4,149.6-120.9,149.2-123.4,148.8L-123.4,148.8z M-109.9,150.6c8.4-3.3,14.3-9.4,16.4-11.8
	c1.3,0.3,2.7,0.6,4,0.9c-2.8,3.5-7.9,9-14.2,11.4C-105.6,151-107.7,150.8-109.9,150.6L-109.9,150.6z M-127.5,176.5l-3.3,0.3
	c0.1-0.1,14.1-6.5,26.9-21.7l0.1-0.1l0.1-0.2l4.4-0.4l4.8-0.4l-0.6,0.8C-95.2,155.1-105.9,169.4-127.5,176.5z M-116.2,179.8l0.1-0.5
	c1.4-0.3,2.7-0.5,3.9-0.7c-3.5,7.5-8.4,12.2-10.9,14.3c-0.9,0.2-1.9,0.3-2.8,0.5C-118.3,186.2-116.3,180.1-116.2,179.8L-116.2,179.8
	z M-123.4,197.1c21.4-3,26.2,5.2,26.3,5.4c-1.8,0-3.6,0.1-5.4,0.2l-0.5,0C-108.4,197.2-123.4,197.1-123.4,197.1L-123.4,197.1z
	 M-117.1,223.3l-4.5,0.4l1.4-1.3c0.1-0.1,6.6-5.9,9.4-15.7c2-0.2,3.9-0.3,5.8-0.4C-105.8,208.6-110.4,220.3-117.1,223.3
	L-117.1,223.3z M-112.4,223.1l1.8-1.4c0.1-0.1,6.5-5.2,9.7-15.6c2-0.1,3.9-0.1,5.8-0.1c-1,3.1-4.4,11.9-12.7,16.7L-112.4,223.1z
	 M-104.5,222.7l2-1.1c0.1,0,8-4.6,11-15.6c2,0,4,0,5.9,0.1c-0.9,3.2-4.3,12.8-14.2,16.8L-104.5,222.7L-104.5,222.7z M-104.4,227.5
	c2.7-0.3,5.2-0.4,7.4-0.6c-6.8,12.3-14.7,18.5-17.6,20.5c-2.6,0.2-5.3,0.4-8.1,0.7C-113.4,241.4-106.7,231.3-104.4,227.5z
	 M-126.8,257.5l-3,0.3c4.9-3,6.4-7.4,6.4-7.4l3-0.3C-121.8,254.5-124.8,256.4-126.8,257.5L-126.8,257.5z M-120.1,257l-3.2,0.4
	c5.1-3.1,6.1-6.9,6.4-7.6l2.9-0.3C-115.5,253.6-118.1,255.8-120.1,257L-120.1,257z M-127.4,273c-0.2,0-0.6,0-0.9,0
	c6.8-4,11.1-10.5,12.4-12.8c2-0.3,3.9-0.6,5.8-0.9c-2.9,6.6-7.4,11.1-9.8,13.1C-123.7,272.8-126.4,273-127.4,273L-127.4,273z
	 M-130.1,288.5c2.5-1.5,7.8-5,11.6-9.7c2.2-0.3,4.4-0.7,6.7-1c-2,2.9-6,7.5-12.9,11.9C-126.6,289.4-128.4,289-130.1,288.5
	L-130.1,288.5z M-123.4,290c2.5-1.4,10.5-6.2,15.6-12.8c1.7-0.3,3.5-0.6,5.2-0.8c0,0,0.1,0,0.1,0l0.5-0.1c-2.4,3.5-7.2,9-15.8,14.7
	C-119.7,290.6-121.6,290.3-123.4,290L-123.4,290z M-116.6,291.1c2.2-1.1,12.6-6.9,18.8-15.5c2.3-0.4,4.5-0.7,6.7-1.1
	c-2.4,3.9-7.8,11.2-17.5,17.6C-111,291.9-113.7,291.5-116.6,291.1L-116.6,291.1z M-105,292.5l-2.3-0.2c1.8-1,14.2-8,20.7-18.5
	c1.9-0.3,3.7-0.6,5.5-0.9c-1.6,3.2-6.5,11.5-17.9,19.4C-100.9,292.4-102.9,292.5-105,292.5L-105,292.5z M-119.3,309.8l1.1-0.3
	c0,0,8.6-3.7,13.7-9.5c2.3-0.6,4.6-1.3,6.9-1.9c-1.5,2.4-5.2,7.7-10.8,11.7l1,0.1C-111.5,310.1-115.6,310.1-119.3,309.8
	L-119.3,309.8z M-98.6,309.1c-2.9,0.3-5.8,0.6-8.7,0.7c0.1-0.1,9.3-5.6,14-12.9c1.8-0.5,3.5-1,5.2-1.4
	C-89.2,297.6-92.6,303.5-98.6,309.1L-98.6,309.1z M-96.7,308.9c3.3-2.5,9.5-7.9,13.1-14.7c1-0.3,1.9-0.5,2.8-0.8
	c0.8-0.1,1.7-0.1,2.6-0.2c-0.8,1.8-4.2,8.6-10.8,14.6C-91.4,308.2-94,308.6-96.7,308.9z M-79.4,306.7c-0.8,0.1-1.6,0.2-2.3,0.3
	c-1.7,0.2-3.6,0.4-5.6,0.7c2.8-2.2,9.3-7.6,13-14.7c1.7-0.1,3.5-0.3,5.3-0.5C-70,294.6-73.2,300.9-79.4,306.7L-79.4,306.7z
	 M-76.6,320.1l-0.6,0.1l-1.9,0.4l-0.7,0.1l0.1-0.1c0.5-0.6,4-4.7,5.7-10.6l5.1-1c0,0-1.1,4.3-3.7,8.1c-0.6,0.8-1.2,1.5-1.9,2.2
	c-0.1,0.1-0.2,0.2-0.3,0.3c-0.1,0.1-0.2,0.2-0.3,0.3l-0.8,0.1L-76.6,320.1L-76.6,320.1z M-86.9,344.5c8.3-5.6,11.9-13.1,13.1-15.9
	l6.3-2.5c-3.9,8.7-11.1,15.7-14.3,18.5C-83.6,344.7-85.3,344.7-86.9,344.5L-86.9,344.5z M-73.6,343.9c-2.2,0.3-4.5,0.6-6.8,0.7
	c9.8-7.3,14.5-17.3,15.6-19.6l6.1-2.5C-62.7,332.9-70.5,341-73.6,343.9L-73.6,343.9z M-65.2,342.1c-0.1,0-0.3,0.1-0.4,0.1
	c-1.9,0.6-4.2,1.1-6.5,1.5c10.4-8.2,14.9-19.5,15.9-22.1l6.1-2.4C-54.4,330.9-63.1,340-65.2,342.1L-65.2,342.1z M-33.9,364.3
	l4.7-4.1c-0.1,6-0.9,18.3-5.6,27.2c-1.8,1.1-3.5,2.1-5.2,3C-38.7,388.1-33.7,378.3-33.9,364.3L-33.9,364.3z M-41.5,391.3
	c-1.4,0.8-2.8,1.5-4.2,2.2c1.5-3.1,4-9.4,4.8-17.6c0.2-1.8,0.3-3.7,0.3-5.8c1.5-1.3,3-2.6,4.5-3.9C-36.2,371.9-37,383.3-41.5,391.3z
	 M-26.8,358.1l3.9-3.4c0,5-0.4,18.9-5.5,28.8c-1.6,1-3.1,2-4.7,3C-31.3,382.7-26.7,372.2-26.8,358.1L-26.8,358.1z M-20.4,352.6
	c1-0.8,1.9-1.6,2.7-2.4c0.4,3.6,1.6,17.2-3.5,28.5c-1.7,1.2-3.5,2.4-5.3,3.6C-24.5,378.2-19.6,367.2-20.4,352.6L-20.4,352.6z
	 M-21.4,348.5c-1.9,1.4-3.9,2.8-6,4.3c1.6-3.8,3.3-9.2,3.4-15.7c1.3,0.2,2.6,0.4,4.2,0.5C-19.7,340.7-20.2,344.6-21.4,348.5
	L-21.4,348.5z M-30.1,354.7c-2.1,1.4-4.3,2.9-6.6,4.3c2.3-3.7,6.5-12.1,6.3-23.4c0.3-0.2,0.6-0.4,0.9-0.6c0.8,0.5,1.6,0.8,2.5,1.2
	C-26.9,340.5-27.4,347.7-30.1,354.7L-30.1,354.7z M-38.9,360.4c-1.7,1-3.4,2.1-5.2,3.1c2.2-3.6,6.4-11.7,6.5-23
	c1.7-1.2,3.2-2.2,4.5-3C-33.1,341.8-33.6,352-38.9,360.4L-38.9,360.4z M-38.8,322.7c-3,6.3-5.8,10.3-7.5,12.4
	c-2.2,0.8-4.4,1.7-6.6,2.5c8.6-8.1,12.3-18.6,13.4-22.3C-39.5,317.4-39.4,320.1-38.8,322.7L-38.8,322.7z M-52.7,340
	c0.5-0.2,1-0.4,1.6-0.6c1.4-0.5,2.9-0.9,4.3-1.1c1.7-0.3,3.3-0.5,4.7-0.6c1.4-0.1,2.5-0.1,3-0.1h0.4l-3.8,2.4l-1,0.6l-0.3,0.2
	c-1.6-0.7-5-0.4-7.6-0.1c-2,0.2-3.5,0.6-3.5,0.6C-54.3,340.7-53.5,340.3-52.7,340L-52.7,340z M-44.6,345.2c1.6-1.1,3-2.1,4.4-3
	c0,4.2-0.7,13.6-6.1,22.5c-2,1.1-4.1,2.3-6.2,3.4C-50,364.8-44.9,356.6-44.6,345.2z M-54.8,369.3c-1.5,0.8-3,1.5-4.4,2.2
	c2.6-3.9,6.2-11.2,6.6-20.7c1.8-1.3,3.6-2.5,5.3-3.7C-47.4,351.1-48.4,360.3-54.8,369.3z M-43.7,334.1c2.7-2.9,4.5-6,5.8-8.7
	c0.4,0.9,0.8,1.7,1.4,2.5c0.7,0.9,1.3,1.8,2,2.6C-36.7,331.3-40,332.6-43.7,334.1L-43.7,334.1z M-40.2,302.8l-3.5,0.4l-1,0.1
	l-1.7,0.2c0,0,0.9-0.9,2-2.3c1-1.3,2-3,2.8-4.9c0.3-0.8,0.6-1.6,0.8-2.5c0,0,0.9-0.1,2-0.4c1.8-0.5,4.4-1.5,5.9-3.8
	c0,0-0.1,0.8-0.4,2.1C-34,294.7-35.9,300.4-40.2,302.8L-40.2,302.8z M-41.5,315.7c-3.7,10.7-10.7,19.4-13.8,22.8
	c-3.1,1.2-5.9,2.2-7.9,2.9c10-8.4,14.8-20.2,15.9-23.4L-41.5,315.7L-41.5,315.7z M-64.2,347.3c1-0.8,2.1-1.5,3.2-2.3
	c2.9-0.9,7.3-1.8,12.6-1.1c-1.2,0.8-2.3,1.6-3.4,2.4c-1-0.1-3.2-0.2-6.1,0c-2.3,0.2-4.9,0.8-7.6,1.8L-64.2,347.3L-64.2,347.3z
	 M-75.7,356.4C-75.7,356.4-75.6,356.4-75.7,356.4c1.5-1.3,3.1-2.7,4.9-4.1c3.6-1.2,9.5-2.8,13.4-1.9c-1.4,1-2.7,2-4,3
	c-0.1,0-0.1,0.1-0.2,0.1C-64,353.4-69.9,353.4-75.7,356.4L-75.7,356.4z M-66.6,374.7c2-2.7,6-9.4,6.3-18.6c1.7-1.2,3.3-2.3,4.9-3.4
	c-0.2,3.9-1.2,11.8-6.3,19.9C-63.4,373.4-65,374.1-66.6,374.7L-66.6,374.7z M-61,377.9c0.3-0.3,0.6-0.6,0.9-0.9
	c0.8-0.8,1.7-1.6,2.6-2.4c3-1.4,7.2-2.8,10.1-1.8l-2.9,2.8l-0.2,0.2C-51.8,375.7-56.6,375.6-61,377.9L-61,377.9z M-69.9,395.7
	c2.3-2,5.3-4.6,8.8-7.6c0.1,2.2,0,6.9-2.4,10.6C-66.4,398.6-68.9,397.8-69.9,395.7L-69.9,395.7z M-62.4,398.7
	c1.5-2.1,3.4-6.1,3.2-12.2l3.8-3.3c0.2,3.1,0.1,9.6-2.8,15C-59.6,398.5-61,398.6-62.4,398.7L-62.4,398.7z M-57.1,398
	c1.4-2,4-7,3.6-16.4c1.4-1.2,2.8-2.5,4.3-3.8c0.2,3.8,0.2,11.9-3,18.7C-53.7,397.1-55.4,397.6-57.1,398L-57.1,398z M-50.8,395.9
	c1.3-2.7,4-9.7,3.6-19.9c1.5-1.3,3-2.6,4.4-3.9c0,2.2-0.2,5.2-0.6,8.5c-0.6,4.4-1.7,9.4-3.7,13.6C-48.3,394.8-49.6,395.4-50.8,395.9
	L-50.8,395.9z M-47.3,401c0-0.1,0.1-0.1,0.1-0.2c0.1,0,0.1-0.1,0.2-0.1L-47.3,401z M-46.1,399c0.6-1,1.2-1.9,1.8-2.7l0.6-0.8
	c2.8-1.4,8.4-3.9,11.8-2.5c0,0,0,0,0.1,0l-2,2.3C-36,395.2-41.1,395.2-46.1,399L-46.1,399z M-39.6,419.3c-1.4,0.4-2.9,0.7-4.3,1
	c0.7-1.4,2.8-6.3,2-11.5l3-3C-38.4,408.5-38,413.8-39.6,419.3L-39.6,419.3z M-38.4,418.9c1-2.9,3-9.4,1.8-15.4
	c1.1-1.1,2.3-2.3,3.5-3.5c0.4,3.7,0.8,10.8-1.3,17.5C-35.7,418-37,418.5-38.4,418.9L-38.4,418.9z M-27.8,410.3
	c-0.2,1.5-0.5,3-0.8,4.6c-1.3,0.7-2.8,1.4-4.4,2.1c0.9-2.6,3.5-10.8,2-19c1-1,1.9-1.9,2.9-2.9C-27.5,397.9-26.9,403.1-27.8,410.3
	L-27.8,410.3z M-26.1,413.4l-0.6,0.5c-0.2,0.1-0.3,0.2-0.5,0.3c0.1-0.5,0.4-1.8,0.8-3.4l0.1-0.3c0.1-0.5,0.2-1,0.3-1.5
	c0.1-0.7,0.2-1.4,0.3-2.1c0.5-3.9,0.7-8.9-0.1-14c1.2-1.2,2.3-2.3,3.5-3.5c0.7,4.6,1.5,13.8-0.8,22.1L-26.1,413.4L-26.1,413.4z
	 M-17.6,407.8l-4.7,3.1l0.5-0.5c0,0,3.9-11.6,1.4-23c1.1-1.1,2.3-2.2,3.4-3.3C-16.3,388.7-15.3,398.6-17.6,407.8z M-9.4,400.3
	c0.7-3.5,2.1-13-0.4-23.4c1.2-1.2,2.4-2.3,3.5-3.4c1.1,4.8,2.2,12.9,0.4,22.9C-7,397.8-8.2,399-9.4,400.3L-9.4,400.3z M-0.5,395.8
	c1.2,9,0,19.2-0.5,22.6l-4.3,4.1c1.8-9.2,1.6-19.9,1.5-23.2C-2.7,398.1-1.6,396.9-0.5,395.8L-0.5,395.8z M-6.6,346.5
	c1.5,2,2.5,6.2,2.1,15.5c-0.1,0.6-0.3,1.3-0.4,1.9l-5.3,5.6C-8.6,365.7-6.1,358.1-6.6,346.5z M-11.7,402.9l-4.4,3.8
	c0.9-3,3.7-14,1.2-24.7c1-0.9,1.9-1.8,2.8-2.7C-10.9,383.4-9.4,391.7-11.7,402.9L-11.7,402.9z M-13.7,342.6
	c-1.5,1.2-3.2,2.5-4.9,3.8c0.9-2.4,1.7-5.5,2-9c1.1-0.1,2.2-0.2,3.3-0.4c-0.3,1.4-0.5,2.8-0.5,4.3
	C-13.9,341.9-13.8,342.3-13.7,342.6L-13.7,342.6z M-26.1,317.9c-1.2-8.3,5.5-13.3,5.5-13.3c-6,15,5.8,20,5.8,20
	c-8.6,1.2-11.1-4.4-11.1-4.4c-1.2,5.8,4,9.4,4,9.4c-23.5-3.3-11.8-24.2-10.8-25.8l0.1,0C-33.5,314.9-26.1,317.9-26.1,317.9
	L-26.1,317.9z M-30,278.9c-0.6,3.6-2,6.1-3.6,7.8c-1.1,1.2-2.2,2-3.2,2.6c-1.2,0.7-2,0.9-2,0.9c1.5-1.5,2.5-3,3.3-4.6
	c3.8-7.5,0.5-15-1.2-18.1c-2.3-0.6-3.9-1.8-3.9-1.8c10.7,19.1-2.1,25-5.3,26.1c-0.2,0-0.4,0-0.5,0l0,0.2c-0.1,0-0.1,0-0.1,0
	s0,0,0.1,0c-0.4,2.4-1.4,5.5-4.5,9.4c-2,0.5-4.2,1.1-6.5,1.6c2.3-2.3,5.6-6,8-10.5c1-0.1,1.6-0.3,1.6-0.3s-9.3-0.3-13.5-7.3
	c-6.8-11.5-2.3-21.4-2.3-21.4c-1.3,8.5,5,15.6,5,15.6c-0.8-1.7-5-17.9-0.1-22c8.1-6.7,15.6,5.2,15.6,5.2c-2.7-4.4-3.2-10.1-3.3-13.1
	c5.7,6.9,12.8,9.9,18.8,11.1l-3.6,5.5C-29.6,271.4-29.4,275.6-30,278.9L-30,278.9z M31.3,202.8c-1.1,0.2-2.2,0.6-3.2,1
	c-5.3,2.3-9,7.2-14.1,16.2c-0.4,0.7-0.8,1.2-1.1,1.8c-1.4,2.1-2.9,3.6-4.3,4.7c-6.2,4.8-12.2,2.1-12.2,2.1
	c14.2-0.8,16.3-15.6,23.1-21.7c2.9-2.6,6.6-3.6,9.1-4C30.2,202.8,31.3,202.8,31.3,202.8L31.3,202.8z M-20.4,201.8
	c12.1-4.7,10-10.3,10-10.3c3.6,3.1,3.4,8.6-6.7,12.1c-11.9,4.1-18.8,15.7-18.8,15.7S-32.5,206.5-20.4,201.8L-20.4,201.8z M-33.2,229
	c-2.1,8.8,1,19.2,1,19.2C-41.8,237.4-33.2,229-33.2,229L-33.2,229z M-28.5,228.6c-2.9,12.1,2.3,23.2,2.3,23.2
	C-38,238-28.5,228.6-28.5,228.6z M-22.5,225.9c-4.2,19,5,32.1,5,32.1C-35.2,243-22.5,225.9-22.5,225.9z M-18.5,231.2
	c0,14.6,3.6,21.7,3.6,21.7C-25.1,244.3-18.5,231.2-18.5,231.2L-18.5,231.2z M-12.7,214.5c1.5-6.9,7.5-3.5,10.2-7.9
	c0,0,0.4,4-3.7,5.8c0,0,5.8-0.4,9-6c0,0-0.4,6.5-4,8.5c0,0,5.8-0.8,10-6c4.2-5.2,6-7.9,13.3-7.3c-7.9,2.3-8.6,15-17.5,21
	C-3.5,228.1-15.2,225.9-12.7,214.5L-12.7,214.5z M25.7,225.6c-0.1,1-0.2,2.1-0.4,3.1c-0.2,1.1-0.5,2.2-1,3.2c0,0.1-0.1,0.2-0.1,0.3
	c-0.4,0.7-1,1.5-1.7,2.2c-1.1,1.2-2.5,2.4-3.9,3.7c-1.9,1.7-3.6,3.4-4.4,5.1c0,0,1.5-6.3,5.2-10.4c0.2-0.2,0.4-0.5,0.6-0.7
	c1-1.2,1.8-2.4,2.6-3.7c0.5-0.9,1-1.8,1.5-2.6c0.8-1.6,1.4-2.8,1.6-3.4l0.1-0.3c0,0,0,0.1,0,0.4C25.8,223,25.8,224.2,25.7,225.6
	L25.7,225.6z M38,207.9c-0.1,0.8-0.4,1.8-1.2,2.8c-1.1,1.4-3.1,2.8-6.8,3.9l-0.6,0.2c-1,0.3-1.9,0.6-2.7,1c-2.9,1.2-4.7,2.6-6.2,4.5
	c-0.4,0.5-0.7,1-1.1,1.5c-0.8,1.3-1.6,2.8-2.5,4.6c-0.2,0.4-0.4,0.8-0.6,1.2l-0.5,0.9c-0.7,1.4-1.4,2.6-2.2,3.7
	c-6.7,10-15.7,10.1-17.6,2.2c0,0,2.8,3.8,7.7,2.3c3.1-1,6.2-5.3,9.1-10c1-1.7,2-3.5,3-5.1c1.7-3,3.3-5.7,4.7-7.2
	c0.6-0.7,1.3-1.3,1.9-1.9c1-0.9,2-1.6,3-2.3c0.6-0.4,1.2-0.7,1.7-1.1c3.2-1.8,6.7-2.8,10.6-3.4C37.9,206.3,38.1,207,38,207.9
	L38,207.9z M63.6,178.9C51.6,192,34,181.6,34,181.6C51.7,186.6,63.6,178.9,63.6,178.9z M-14.8,144.4c3.8-9.8,7.5-11,11.5-13.4
	c4-2.5,15.9-1.4,15.9-1.4c-1.2,0.8-2.9,4.4-2.9,4.4s2.8-2.5,9.6-5.4c3-1.2,5.4-2.7,7.4-4.1h-9.4c-8.8,2.3-16.2,1.7-22,4.1
	C-13.8,132.5-14.8,144.4-14.8,144.4L-14.8,144.4z M-39.4,248.2c0,0-10.4-14.2-2.7-37.1C-42.1,211.1-57.6,227.6-39.4,248.2z
	 M119.4,134c-4.9-2.7-8.4-6.3-10.8-9.5h-2.2c2.4,5.2,5.5,6.8,5.5,6.8c-5.8-0.2-12.5-3.8-17.2-6.8h-2
	C105.5,137.5,119.4,134,119.4,134L119.4,134z M140.1,137.7c13.1,1.1,23-5,26.8-13.2h-4.3c-5.7,4.1-15.1,7.7-26.6,0h-2.2
	c2.2,2.4,5.6,5.2,10.6,7c0,0-7.4,0.2-15.5-7h-1.8c2,3.1,5,6.9,8.3,8.9c0,0-6.7-1.6-14-8.9H120C123.4,129.7,130,136.8,140.1,137.7
	L140.1,137.7z M17.9,136.3c-8.3,1.9-9.6,9.8-9.6,9.8s3.5-6,9-6.9c3.4-0.6,7.1-3.3,7.1-3.3s-2.3,6.5-7.9,9c-5.6,2.5-8.5,7.9-8.8,10.8
	c0,0,3.3-5.4,9.6-8.1c6.3-2.7,10.4-10.2,11-18.8C28.3,128.8,24.8,134.7,17.9,136.3L17.9,136.3z M157.3,238.7c0,0,4.4,0.3,10.7,1.6
	v-2.2C165.1,238,161.5,238.1,157.3,238.7L157.3,238.7z M168,378.3V375c-12.2,0.7-20.4,2.3-20.4,2.3
	C155.5,378.2,162.2,378.4,168,378.3L168,378.3z M168,367.4v-3.1c-8.3,0.4-14.4,1.6-14.4,1.6C159.2,367.2,164,367.5,168,367.4z
	 M168,372.7v-3c-8.7,0.3-14.4,1.6-14.4,1.6C159.2,372.4,164,372.8,168,372.7L168,372.7z M152.2,227c0,0,6.5,0.3,15.8,1.6v-2.2
	C163.6,226.3,158.4,226.5,152.2,227z M168,160.4v-1.6c-4.1,0-8.8,0.1-14.3,0.6C153.8,159.4,159.6,159.6,168,160.4z M146.2,173
	c0,0,9.3,0.2,21.9,1.7v-2C162.3,172.3,155.1,172.3,146.2,173z M151.2,166.3c0,0,7,0.2,16.8,1.3v-1.8
	C163.3,165.6,157.8,165.7,151.2,166.3z M161.2,295.6c0,0,2.7,0.4,6.8,1.5v-1.6C166,295.4,163.8,295.4,161.2,295.6L161.2,295.6z
	 M168,217.4v-0.8c-1.8,0.1-3.7,0.1-5.8,0.3C162.2,216.9,164.4,217,168,217.4L168,217.4z M168,302.1v-1.6c-2-0.1-4.2,0-6.6,0.3
	C161.4,300.8,164.1,301.1,168,302.1z M157.9,259.4c0,0,4.3,0.6,10.1,2.4v-2.5C165.3,259,162,258.9,157.9,259.4z M158.3,269.8
	c0,0,4.1,0.5,9.7,2.3v-2.3C165.4,269.4,162.2,269.3,158.3,269.8z M140,179.8c0,0,12.3,0.3,28,2.3v-2.2
	C161.2,179.1,152.1,178.9,140,179.8z M155.7,232.6c0,0,5,0.3,12.3,1.5v-1.8C164.5,232.2,160.5,232.3,155.7,232.6z M159.5,285.3
	c0,0,3.6,0.5,8.6,2v-2.2C165.6,284.9,162.8,284.9,159.5,285.3L159.5,285.3z M158.7,275c0,0,3.9,0.5,9.3,2.2v-2.3
	C165.5,274.5,162.4,274.5,158.7,275L158.7,275z M159.8,290.5c0,0,3.4,0.4,8.2,1.9v-2C165.7,290.1,163,290.1,159.8,290.5L159.8,290.5
	z M159.1,280.1c0,0,3.7,0.5,9,2.1V280C165.6,279.7,162.6,279.7,159.1,280.1L159.1,280.1z"/>
<g>
	
		<linearGradient id="SVGID_2_" gradientUnits="userSpaceOnUse" x1="196.04" y1="557.4775" x2="-103.967" y2="557.4775" gradientTransform="matrix(1 0 0 -1 272 832)">
		<stop  offset="0.5" style="stop-color:#6B113D"/>
		<stop  offset="1" style="stop-color:#490724"/>
	</linearGradient>
	<path class="st2" d="M168,124.5h300v300H168L168,124.5z"/>
	<path class="st3" d="M268.9,274.5v43.5h23.3v6.6h-34.2v-50.2L268.9,274.5L268.9,274.5z M311.6,274.5v50.2h-11v-50.2L311.6,274.5
		L311.6,274.5z M381.5,299.3c0,15.8-12.1,26.4-30,26.4c-7.8,0-14.5-2.2-19.3-6.3c-5.4-4.6-8.6-11.7-8.6-19.4c0-8.1,3.3-15,9.7-19.8
		c6-4.6,12.3-6.7,20.4-6.7C370.4,273.6,381.5,283.9,381.5,299.3z M335.2,299c0,11.9,7.7,20.5,18.1,20.5c3.8,0,7.5-1.3,10.4-3.7
		c4.1-3.5,6.2-8.5,6.2-15c0-12.4-7.5-20.9-18.3-20.9C341.9,279.9,335.2,287.7,335.2,299L335.2,299z M393.3,274.5
		c12.6-0.2,18.8-0.4,18.8-0.4c8.3,0,12,0.6,15.3,2.7c4.2,2.6,6.2,6.3,6.2,11.2c0,6.6-5,11.6-12.7,13.9c7,14.4,12.7,19,19,18.6
		l0.2,0.4l-0.8,3.2c-0.2,1-2.4,1.6-6.2,1.6c-6,0-10.4-2.5-14.6-8.1c-2.2-3.1-4.3-6.9-7.7-14c-1.4,0.1-2.4,0.2-4,0.2
		c-0.9,0-1.5,0-2.6-0.1v21.1h-11V274.5L393.3,274.5z M404.3,297.9c4.2,0.2,5.1,0.2,5.8,0.2c8.3,0,12.1-2.9,12.1-9.3
		c0-3.9-1.7-6.5-4.8-7.7c-1.6-0.6-3.4-0.9-7.3-0.9c-2.1,0-2.5,0-5.7,0.1L404.3,297.9L404.3,297.9z"/>
	<path class="st4" d="M207.9,344.5c4.2-0.1,4.3-0.1,7.7-0.1c2.9-0.1,5.1-0.1,6.3-0.1c7.2,0,10.7,0.8,13.4,3.2
		c2.3,2.1,3.7,5.1,3.7,8.4c0,5.2-2.5,8.4-8,10.6c3.6,0.6,5.2,1.2,7,2.4c3.3,2.2,5.3,6.2,5.3,10.4c0,5.7-3.2,10.7-8.4,13.1
		c-3.7,1.7-7.3,2.1-16.4,2.1h-10.7L207.9,344.5L207.9,344.5z M220.7,365.8c5,0,6.9-0.5,8.8-2.1c1.9-1.7,2.8-3.9,2.8-6.8
		c0-3.3-1.2-5.7-3.4-7.2c-1.6-1-3.8-1.5-7.6-1.5c-2.1,0-3.1,0-7.3,0.3v17.3L220.7,365.8L220.7,365.8z M220.9,390.5
		c5.9,0,9.7-0.9,12.2-3c2.3-1.9,3.5-4.6,3.5-7.6c0-4-2-7.1-5.3-8.7c-2.3-1.1-5.8-1.6-10.8-1.6H214v20.8L220.9,390.5L220.9,390.5z
		 M276.4,344.5l19.3,50H289l-5.9-16.2h-21.8l-6.7,16.2h-6.3l23.2-50C271.5,344.5,276.4,344.5,276.4,344.5z M272.9,351l-9.8,23.5
		h18.6L272.9,351L272.9,351z M308.5,344.5l34.1,39.8l-1.1-39.8h5.5l-0.1,49.8l-2.7,0.9l-36.1-41.7l1.2,40.9h-5.5v-50L308.5,344.5
		L308.5,344.5z M370.1,344.5v50h-6.2v-50L370.1,344.5L370.1,344.5z M403.4,344.5l-25.7,22.2l26.8,27.8h-8.7l-25.4-26.8l24.9-23.3
		L403.4,344.5L403.4,344.5z"/>
	<path class="st3" d="M227.1,272.4h-16.9l-0.6,0.5c0,0-1.3,4.2-1.4,5.2c0.2,2,9.7,0.2,9.7,0.2l-22,46.3h9.7l5.1-12.4H232l4.5,12.4
		h12.1L227.1,272.4L227.1,272.4z M212.9,306.7l8.7-21.8l8,21.8H212.9L212.9,306.7z"/>
</g>
</svg>
